# xmcd CD database file
#
# Track frame offsets:
#	180
#	13412
#	29713
#	35697
#	49021
#	66611
#	90450
#	111154
#	129376
#	143247
#	166835
#	178771
#
# Disc length: 2705 seconds
#
# Revision: 0
# Processed by: cddbd v1.5.2PL0 Copyright (c) Steve Scherf et al.
# Submitted via: CDex 1.51
#
DISCID=ae0a8f0c
DTITLE=Göran Samuelsson - Tangonatt
DYEAR=1995
DGENRE=Blues
TTITLE0=Tänk omo det vore
TTITLE1=Blues om ingenting
TTITLE2=Bo sambo med sig själv
TTITLE3=Rapport från staccato by
TTITLE4=Mannen på kajen
TTITLE5=Harrys uteterass
TTITLE6=Vårvals/En vanlig vardagsdag
TTITLE7=Sagasång/sommarvals
TTITLE8=Poetica delirium
TTITLE9=Gustav
TTITLE10=Tomteblues
TTITLE11=Sju gröna punkter
EXTD=YEAR: 1995
EXTT0=
EXTT1=
EXTT2=
EXTT3=
EXTT4=
EXTT5=
EXTT6=
EXTT7=
EXTT8=
EXTT9=
EXTT10=
EXTT11=
PLAYORDER=
